<svg width="492" height="396" viewBox="0 0 492 396" fill="none" xmlns="http://www.w3.org/2000/svg">
<circle cx="310.5" cy="181.5" r="145.5" stroke="#005678" stroke-width="10"/>
<circle cx="310.5" cy="181.5" r="89.5" stroke="#005678" stroke-width="10"/>
<line x1="313" x2="313" y2="363" stroke="#005678" stroke-width="5"/>
<line y1="-2.5" x2="363" y2="-2.5" transform="matrix(1 0 0 -1 129 181.5)" stroke="#005678" stroke-width="5"/>
<path d="M46.2129 202.797C45.6328 205.697 44.6982 208.727 43.4092 211.885C42.1846 214.979 40.5732 217.814 38.5752 220.393C36.6416 222.971 34.3213 225.065 31.6143 226.677C28.9072 228.353 25.8135 229.19 22.333 229.19C19.7549 229.19 17.4346 228.675 15.3721 227.644C13.3096 226.612 11.4404 225.227 9.76465 223.486C8.08887 221.746 6.63867 219.748 5.41406 217.492C4.18945 215.236 3.1582 212.916 2.32031 210.531C1.54688 208.082 0.966797 205.665 0.580078 203.28C0.193359 200.896 0 198.672 0 196.609C0 193.709 0.257812 190.615 0.773438 187.328C1.35352 183.977 2.19141 180.689 3.28711 177.467C4.38281 174.18 5.76855 171.054 7.44434 168.089C9.12012 165.06 11.0859 162.417 13.3418 160.161C15.6621 157.841 18.2402 156.004 21.0762 154.65C23.9766 153.232 27.1992 152.523 30.7441 152.523C33 152.523 35.0947 152.975 37.0283 153.877C38.9619 154.715 40.6377 155.875 42.0557 157.357C43.4736 158.775 44.5693 160.483 45.3428 162.481C46.1807 164.479 46.5996 166.574 46.5996 168.766V169.636C46.5996 170.796 46.5352 172.246 46.4062 173.986C46.3418 175.662 46.0518 177.273 45.5361 178.82C45.0205 180.367 44.2471 181.721 43.2158 182.881C42.1846 183.977 40.7344 184.524 38.8652 184.524C36.6094 184.524 34.9014 184.009 33.7412 182.978C32.5811 181.946 32.001 180.238 32.001 177.854C32.001 176.951 32.0332 176.049 32.0977 175.146C32.1621 174.244 32.1943 173.342 32.1943 172.439C32.1943 171.086 31.9688 170.055 31.5176 169.346C31.0664 168.572 30.1318 168.186 28.7139 168.186C27.1025 168.186 25.6523 168.701 24.3633 169.732C23.0742 170.764 21.9463 172.117 20.9795 173.793C20.0127 175.469 19.1748 177.37 18.4658 179.497C17.7568 181.624 17.1768 183.783 16.7256 185.975C16.2744 188.102 15.9521 190.164 15.7588 192.162C15.5654 194.16 15.4688 195.868 15.4688 197.286C15.4688 198.446 15.5332 199.8 15.6621 201.347C15.791 202.829 16.0488 204.279 16.4355 205.697C16.8867 207.051 17.5312 208.211 18.3691 209.178C19.207 210.145 20.3027 210.628 21.6562 210.628C23.9766 210.628 25.8457 209.919 27.2637 208.501C28.6816 207.019 29.6484 205.149 30.1641 202.894C29.2617 202.765 28.3594 202.571 27.457 202.313C26.6191 201.991 25.8135 201.572 25.04 201.057C24.3311 200.477 23.751 199.8 23.2998 199.026C22.8486 198.188 22.623 197.222 22.623 196.126C22.623 194.128 23.2998 192.581 24.6533 191.485C26.0068 190.325 27.5859 189.455 29.3906 188.875C31.2598 188.295 33.1611 187.94 35.0947 187.812C37.0283 187.618 38.5752 187.521 39.7354 187.521C40.5732 187.521 41.7979 187.586 43.4092 187.715C45.0205 187.844 46.5996 188.134 48.1465 188.585C49.7578 188.972 51.1436 189.552 52.3037 190.325C53.4639 191.099 54.0439 192.098 54.0439 193.322C54.0439 195.771 53.3672 197.898 52.0137 199.703C50.7246 201.443 48.791 202.475 46.2129 202.797ZM95.5195 212.368C95.5195 213.528 95.4551 215.043 95.3262 216.912C95.2617 218.781 95.0039 220.618 94.5527 222.423C94.1016 224.163 93.3926 225.678 92.4258 226.967C91.459 228.256 90.1055 228.9 88.3652 228.9C85.9805 228.9 84.1436 228.127 82.8545 226.58C81.5654 225.033 80.9531 223.1 81.0176 220.779C78.9551 222.584 76.6025 224.002 73.96 225.033C71.3818 226.064 68.7393 226.58 66.0322 226.58C64.1631 226.58 62.3906 226.129 60.7148 225.227C59.0391 224.324 57.5566 223.164 56.2676 221.746C54.9785 220.328 53.9473 218.749 53.1738 217.009C52.4004 215.204 52.0137 213.432 52.0137 211.691C52.0137 208.598 52.9482 205.891 54.8174 203.57C56.751 201.25 59.1035 199.284 61.875 197.673C64.6465 195.997 67.5791 194.676 70.6729 193.709C73.8311 192.742 76.6348 192.098 79.084 191.775C79.084 191.453 79.084 191.163 79.084 190.905C79.1484 190.647 79.1807 190.357 79.1807 190.035C79.1807 188.037 78.6328 186.426 77.5371 185.201C76.4414 183.977 74.8945 183.364 72.8965 183.364C71.2852 183.364 69.8994 183.654 68.7393 184.234C67.5791 184.75 66.4834 185.362 65.4521 186.071C64.4209 186.716 63.3896 187.328 62.3584 187.908C61.3271 188.424 60.167 188.682 58.8779 188.682C57.46 188.682 56.2354 188.23 55.2041 187.328C54.2373 186.426 53.7539 185.266 53.7539 183.848C53.7539 181.721 54.3662 179.787 55.5908 178.047C56.8799 176.307 58.459 174.856 60.3281 173.696C62.2617 172.472 64.3242 171.537 66.5156 170.893C68.7715 170.184 70.834 169.829 72.7031 169.829C74.4434 169.829 76.1836 170.055 77.9238 170.506C79.6641 170.893 81.3076 171.537 82.8545 172.439C84.4014 173.277 85.7871 174.341 87.0117 175.63C88.3008 176.854 89.332 178.305 90.1055 179.98C91.2656 182.365 92.2002 184.911 92.9092 187.618C93.6182 190.261 94.166 193 94.5527 195.836C94.9395 198.607 95.1973 201.411 95.3262 204.247C95.4551 207.019 95.5195 209.726 95.5195 212.368ZM80.0508 209.274L79.7607 202.7C79.6318 202.7 79.5029 202.7 79.374 202.7C79.2451 202.636 79.1162 202.604 78.9873 202.604C78.1494 202.604 77.0859 202.829 75.7969 203.28C74.5723 203.667 73.3799 204.247 72.2197 205.021C71.0596 205.729 70.0605 206.535 69.2227 207.438C68.4492 208.34 68.0625 209.274 68.0625 210.241C68.0625 211.144 68.3848 211.756 69.0293 212.078C69.6738 212.4 70.415 212.562 71.2529 212.562C72.6709 212.562 74.1855 212.207 75.7969 211.498C77.4082 210.725 78.8262 209.983 80.0508 209.274ZM160.005 194.096C160.005 195.32 160.005 196.996 160.005 199.123C160.005 201.186 159.94 203.441 159.812 205.891C159.747 208.34 159.554 210.821 159.231 213.335C158.909 215.784 158.394 218.008 157.685 220.006C157.04 222.004 156.202 223.647 155.171 224.937C154.14 226.226 152.818 226.87 151.207 226.87C149.789 226.87 148.693 226.29 147.92 225.13C147.211 223.905 146.695 222.487 146.373 220.876C146.051 219.265 145.857 217.621 145.793 215.945C145.793 214.27 145.793 212.948 145.793 211.981C145.793 209.081 145.89 206.245 146.083 203.474C146.276 200.702 146.373 197.866 146.373 194.966C146.373 194.644 146.373 194.063 146.373 193.226C146.373 192.388 146.309 191.55 146.18 190.712C146.051 189.874 145.825 189.133 145.503 188.488C145.245 187.844 144.826 187.521 144.246 187.521C143.086 187.521 142.151 188.134 141.442 189.358C140.733 190.519 140.153 191.904 139.702 193.516C139.251 195.127 138.929 196.738 138.735 198.35C138.542 199.896 138.413 201.057 138.349 201.83C138.22 202.668 138.091 203.925 137.962 205.601C137.897 207.276 137.769 209.113 137.575 211.111C137.446 213.109 137.188 215.172 136.802 217.299C136.479 219.361 136.028 221.263 135.448 223.003C134.933 224.679 134.256 226.064 133.418 227.16C132.58 228.256 131.549 228.804 130.324 228.804C128.777 228.804 127.585 228.127 126.747 226.773C125.909 225.42 125.297 223.841 124.91 222.036C124.523 220.231 124.266 218.395 124.137 216.525C124.072 214.656 124.04 213.206 124.04 212.175C124.04 211.079 124.04 210.016 124.04 208.984C124.104 207.953 124.137 206.89 124.137 205.794C124.137 205.343 124.137 204.602 124.137 203.57C124.137 202.539 124.104 201.411 124.04 200.187C124.04 198.897 123.976 197.576 123.847 196.223C123.782 194.869 123.653 193.645 123.46 192.549C123.267 191.389 122.977 190.454 122.59 189.745C122.203 189.036 121.752 188.682 121.236 188.682C120.398 188.682 119.625 189.229 118.916 190.325C118.207 191.356 117.595 192.613 117.079 194.096C116.563 195.514 116.145 196.932 115.822 198.35C115.564 199.768 115.436 200.799 115.436 201.443V202.023C115.436 205.117 115.629 208.146 116.016 211.111C116.402 214.076 116.596 217.105 116.596 220.199C116.596 222.004 116.016 223.68 114.855 225.227C113.695 226.709 112.084 227.45 110.021 227.45C108.539 227.45 107.314 226.902 106.348 225.807C105.381 224.646 104.575 223.164 103.931 221.359C103.286 219.555 102.771 217.589 102.384 215.462C102.062 213.271 101.836 211.144 101.707 209.081C101.578 206.954 101.481 205.053 101.417 203.377C101.417 201.637 101.417 200.348 101.417 199.51C101.417 198.543 101.385 197.125 101.32 195.256C101.32 193.387 101.353 191.356 101.417 189.165C101.546 186.974 101.739 184.75 101.997 182.494C102.255 180.174 102.674 178.079 103.254 176.21C103.834 174.341 104.575 172.826 105.478 171.666C106.444 170.441 107.669 169.829 109.151 169.829C110.827 169.829 112.181 170.28 113.212 171.183C114.308 172.085 114.855 173.438 114.855 175.243C114.855 175.63 114.823 176.017 114.759 176.403C114.759 176.79 114.727 177.145 114.662 177.467C115.371 176.436 116.241 175.404 117.272 174.373C118.304 173.277 119.399 172.311 120.56 171.473C121.784 170.57 123.073 169.861 124.427 169.346C125.78 168.766 127.134 168.476 128.487 168.476C129.776 168.476 130.937 168.83 131.968 169.539C132.999 170.248 133.901 171.15 134.675 172.246C135.448 173.277 136.093 174.405 136.608 175.63C137.124 176.854 137.479 178.015 137.672 179.11C138.316 177.95 139.09 176.79 139.992 175.63C140.959 174.405 141.99 173.342 143.086 172.439C144.182 171.537 145.374 170.796 146.663 170.216C148.017 169.636 149.402 169.346 150.82 169.346C152.174 169.346 153.334 169.829 154.301 170.796C155.268 171.763 156.105 173.02 156.814 174.566C157.523 176.049 158.071 177.757 158.458 179.69C158.845 181.56 159.167 183.429 159.425 185.298C159.683 187.103 159.844 188.811 159.908 190.422C159.973 191.969 160.005 193.193 160.005 194.096ZM182.338 158.518C182.338 159.42 182.08 160.226 181.564 160.935C181.113 161.644 180.501 162.288 179.728 162.868C178.954 163.384 178.116 163.803 177.214 164.125C176.312 164.383 175.474 164.512 174.7 164.512C173.411 164.512 172.283 164.189 171.316 163.545C170.35 162.9 169.866 161.901 169.866 160.548C169.866 159.581 170.092 158.743 170.543 158.034C171.059 157.261 171.671 156.648 172.38 156.197C173.089 155.682 173.895 155.295 174.797 155.037C175.699 154.779 176.569 154.65 177.407 154.65C178.632 154.65 179.76 154.94 180.791 155.521C181.822 156.101 182.338 157.1 182.338 158.518ZM183.111 191.389C183.111 192.291 183.111 193.258 183.111 194.289C183.111 195.256 183.079 196.19 183.015 197.093C182.95 198.188 182.918 199.671 182.918 201.54C182.918 203.345 182.854 205.311 182.725 207.438C182.596 209.564 182.37 211.724 182.048 213.915C181.79 216.106 181.339 218.104 180.694 219.909C180.05 221.714 179.18 223.196 178.084 224.356C177.053 225.452 175.731 226.032 174.12 226.097C172.896 226.161 171.864 225.678 171.026 224.646C170.188 223.615 169.479 222.294 168.899 220.683C168.384 219.007 167.997 217.17 167.739 215.172C167.481 213.109 167.288 211.144 167.159 209.274C167.03 207.341 166.966 205.568 166.966 203.957C166.966 202.346 166.966 201.153 166.966 200.38C166.966 199.349 166.966 197.898 166.966 196.029C166.966 194.096 167.03 192.033 167.159 189.842C167.288 187.65 167.514 185.427 167.836 183.171C168.223 180.915 168.738 178.853 169.383 176.983C170.092 175.114 170.994 173.6 172.09 172.439C173.186 171.279 174.571 170.699 176.247 170.699C177.987 170.699 179.309 171.569 180.211 173.31C181.113 175.05 181.79 177.08 182.241 179.4C182.692 181.721 182.95 184.041 183.015 186.361C183.079 188.617 183.111 190.293 183.111 191.389ZM217.433 228.707C216.337 228.707 215.467 228.191 214.822 227.16C214.178 226.193 213.694 225.065 213.372 223.776C213.05 222.487 212.824 221.198 212.695 219.909C212.631 218.556 212.599 217.524 212.599 216.815C212.599 214.882 212.695 212.948 212.889 211.015C213.146 209.081 213.404 207.147 213.662 205.214C213.984 203.28 214.242 201.347 214.436 199.413C214.693 197.479 214.822 195.546 214.822 193.612C214.822 192.839 214.79 192.001 214.726 191.099C214.661 190.196 214.5 189.358 214.242 188.585C214.049 187.747 213.694 187.07 213.179 186.555C212.663 186.039 211.986 185.781 211.148 185.781C210.568 185.781 209.924 186.265 209.215 187.231C208.506 188.134 207.829 189.197 207.185 190.422C206.604 191.582 206.089 192.774 205.638 193.999C205.251 195.159 205.058 196.029 205.058 196.609C205.058 198.027 205.058 199.478 205.058 200.96C205.122 202.378 205.154 203.828 205.154 205.311V210.918C205.09 212.078 204.993 213.271 204.864 214.495C204.735 215.72 204.542 216.912 204.284 218.072C204.091 219.232 203.801 220.36 203.414 221.456C203.027 222.487 202.512 223.422 201.867 224.26C201.287 225.033 200.578 225.678 199.74 226.193C198.902 226.709 197.903 226.967 196.743 226.967C195.454 226.967 194.391 226.548 193.553 225.71C192.715 224.872 192.038 223.809 191.522 222.52C191.007 221.166 190.62 219.684 190.362 218.072C190.169 216.396 190.008 214.785 189.879 213.238C189.814 211.627 189.782 210.177 189.782 208.888C189.847 207.534 189.879 206.471 189.879 205.697V201.153C189.879 198.704 189.814 196.287 189.686 193.902C189.621 191.518 189.589 189.133 189.589 186.748C189.589 185.459 189.589 183.815 189.589 181.817C189.653 179.819 189.911 177.886 190.362 176.017C190.813 174.083 191.555 172.439 192.586 171.086C193.617 169.732 195.132 169.056 197.13 169.056C198.032 169.056 198.838 169.346 199.547 169.926C200.256 170.506 200.868 171.215 201.384 172.053C201.964 172.891 202.415 173.793 202.737 174.76C203.124 175.727 203.414 176.564 203.607 177.273C204.252 176.371 204.993 175.501 205.831 174.663C206.733 173.825 207.732 173.084 208.828 172.439C209.924 171.795 211.148 171.279 212.502 170.893C213.855 170.506 215.402 170.312 217.143 170.312C220.43 170.312 222.976 171.118 224.78 172.729C226.649 174.276 228.003 176.242 228.841 178.627C229.743 180.947 230.291 183.461 230.484 186.168C230.678 188.875 230.774 191.324 230.774 193.516C230.774 194.611 230.678 196.255 230.484 198.446C230.291 200.573 229.969 202.958 229.518 205.601C229.131 208.179 228.583 210.854 227.874 213.625C227.165 216.332 226.327 218.813 225.36 221.069C224.394 223.325 223.233 225.162 221.88 226.58C220.591 227.998 219.108 228.707 217.433 228.707ZM279.984 193.032C279.984 196.319 279.92 199.606 279.791 202.894C279.727 206.181 279.565 209.468 279.308 212.755C279.114 215.591 278.856 218.62 278.534 221.843C278.212 225.065 277.696 228.256 276.987 231.414C276.278 234.637 275.344 237.698 274.184 240.599C273.023 243.563 271.477 246.174 269.543 248.43C267.674 250.686 265.386 252.49 262.679 253.844C259.972 255.197 256.749 255.874 253.011 255.874C251.271 255.874 249.305 255.584 247.113 255.004C244.986 254.488 242.956 253.715 241.022 252.684C239.153 251.652 237.542 250.363 236.188 248.816C234.899 247.334 234.255 245.594 234.255 243.596C234.255 242.113 234.771 240.728 235.802 239.438C236.897 238.214 238.283 237.602 239.959 237.602C240.99 237.602 241.957 237.763 242.859 238.085C243.826 238.472 244.761 238.891 245.663 239.342C246.63 239.793 247.532 240.18 248.37 240.502C249.272 240.889 250.175 241.082 251.077 241.082C253.462 241.082 255.46 240.47 257.071 239.245C258.683 238.085 259.972 236.57 260.938 234.701C261.905 232.896 262.614 230.898 263.065 228.707C263.581 226.58 263.936 224.55 264.129 222.616C262.84 224.099 261.325 225.13 259.585 225.71C257.909 226.226 256.137 226.483 254.268 226.483C250.852 226.483 247.951 225.903 245.566 224.743C243.182 223.519 241.248 221.875 239.766 219.812C238.283 217.686 237.188 215.236 236.479 212.465C235.77 209.693 235.415 206.696 235.415 203.474C235.415 201.476 235.608 199.22 235.995 196.706C236.446 194.192 237.091 191.646 237.929 189.068C238.767 186.49 239.798 183.977 241.022 181.527C242.312 179.078 243.794 176.919 245.47 175.05C247.146 173.181 249.015 171.666 251.077 170.506C253.204 169.346 255.524 168.766 258.038 168.766C260.487 168.766 262.646 169.475 264.516 170.893C266.449 172.311 267.577 174.309 267.899 176.887C268.608 175.533 269.543 174.212 270.703 172.923C271.863 171.569 273.281 170.893 274.957 170.893C275.859 170.893 276.601 171.344 277.181 172.246C277.825 173.148 278.309 174.341 278.631 175.823C279.018 177.241 279.308 178.82 279.501 180.561C279.694 182.236 279.823 183.912 279.888 185.588C279.952 187.199 279.984 188.682 279.984 190.035C279.984 191.389 279.984 192.388 279.984 193.032ZM265.289 199.316C265.289 198.35 265.128 197.093 264.806 195.546C264.548 193.999 264.129 192.517 263.549 191.099C263.033 189.681 262.356 188.456 261.519 187.425C260.681 186.394 259.682 185.878 258.521 185.878C257.039 185.878 255.718 186.394 254.558 187.425C253.462 188.456 252.527 189.713 251.754 191.195C250.98 192.613 250.368 194.16 249.917 195.836C249.53 197.447 249.337 198.833 249.337 199.993C249.337 200.831 249.401 201.959 249.53 203.377C249.659 204.795 249.917 206.181 250.304 207.534C250.755 208.888 251.335 210.048 252.044 211.015C252.753 211.981 253.688 212.465 254.848 212.465C256.588 212.465 258.103 212.046 259.392 211.208C260.681 210.37 261.744 209.307 262.582 208.018C263.484 206.729 264.161 205.311 264.612 203.764C265.063 202.217 265.289 200.734 265.289 199.316Z" fill="white"/>
<path d="M209.307 309.699C209.307 315.049 209.178 320.431 208.92 325.845C208.662 331.194 208.34 336.544 207.953 341.894C207.889 342.86 207.824 344.182 207.76 345.857C207.695 347.469 207.566 349.241 207.373 351.175C207.18 353.044 206.922 354.945 206.6 356.879C206.277 358.812 205.762 360.585 205.053 362.196C204.408 363.743 203.538 365 202.442 365.967C201.411 366.998 200.122 367.514 198.575 367.514C197.222 367.514 195.997 367.224 194.901 366.644C193.87 366.063 193 365.322 192.291 364.42C191.582 363.453 191.034 362.39 190.647 361.229C190.261 360.005 190.067 358.748 190.067 357.459C190.067 355.332 190.132 353.205 190.261 351.078C190.39 348.887 190.583 346.728 190.841 344.601L181.27 345.567C181.076 347.243 180.851 349.273 180.593 351.658C180.399 353.979 179.948 356.234 179.239 358.426C178.595 360.553 177.596 362.39 176.242 363.937C174.889 365.483 173.02 366.257 170.635 366.257C169.152 366.257 167.928 365.902 166.961 365.193C165.994 364.549 165.221 363.711 164.641 362.68C164.061 361.584 163.642 360.392 163.384 359.103C163.126 357.813 162.997 356.589 162.997 355.429C162.997 351.562 163.158 347.727 163.48 343.924C163.803 340.057 164.028 336.189 164.157 332.322C164.286 328.262 164.318 324.201 164.254 320.141C164.254 316.016 164.318 311.891 164.447 307.766C164.512 306.412 164.544 304.833 164.544 303.028C164.608 301.224 164.834 299.548 165.221 298.001C165.672 296.39 166.381 295.036 167.348 293.94C168.379 292.845 169.894 292.297 171.892 292.297C174.663 292.297 176.758 293.038 178.176 294.521C179.594 295.938 180.593 297.743 181.173 299.935C181.753 302.062 182.043 304.35 182.043 306.799C182.043 309.184 182.043 311.343 182.043 313.276C182.043 315.854 181.979 318.4 181.85 320.914C181.721 323.363 181.592 325.845 181.463 328.358L191.808 326.812C191.872 323.653 191.937 320.527 192.001 317.434C192.065 314.34 192.194 311.246 192.388 308.152C192.452 306.67 192.517 305.091 192.581 303.415C192.646 301.739 192.903 300.192 193.354 298.774C193.806 297.356 194.547 296.196 195.578 295.294C196.674 294.327 198.285 293.844 200.412 293.844C202.217 293.844 203.667 294.359 204.763 295.391C205.923 296.422 206.825 297.679 207.47 299.161C208.179 300.644 208.662 302.223 208.92 303.898C209.178 305.574 209.307 307.089 209.307 308.442V309.699ZM234.057 367.804C230.77 367.804 227.901 366.934 225.452 365.193C223.003 363.453 220.94 361.229 219.265 358.522C217.589 355.815 216.332 352.818 215.494 349.531C214.656 346.18 214.237 342.893 214.237 339.67C214.237 336.254 214.656 332.741 215.494 329.132C216.332 325.458 217.621 322.139 219.361 319.174C221.102 316.145 223.325 313.695 226.032 311.826C228.739 309.893 231.962 308.926 235.7 308.926C239.31 308.926 242.371 309.925 244.885 311.923C247.463 313.856 249.525 316.306 251.072 319.271C252.619 322.171 253.715 325.361 254.359 328.842C255.004 332.322 255.229 335.609 255.036 338.703C254.843 342.119 254.295 345.567 253.393 349.048C252.555 352.528 251.298 355.654 249.622 358.426C247.946 361.197 245.819 363.453 243.241 365.193C240.663 366.934 237.602 367.804 234.057 367.804ZM235.023 324.104C234.057 324.104 233.187 324.62 232.413 325.651C231.704 326.683 231.092 327.939 230.576 329.422C230.125 330.904 229.771 332.483 229.513 334.159C229.255 335.771 229.126 337.188 229.126 338.413C229.126 339.96 229.255 341.636 229.513 343.44C229.835 345.245 230.254 346.921 230.77 348.468C231.285 349.95 231.897 351.207 232.606 352.238C233.38 353.205 234.25 353.688 235.217 353.688C236.248 353.688 237.118 353.205 237.827 352.238C238.601 351.271 239.213 350.047 239.664 348.564C240.115 347.082 240.438 345.471 240.631 343.73C240.824 341.926 240.921 340.25 240.921 338.703C240.921 337.285 240.792 335.738 240.534 334.062C240.276 332.322 239.89 330.711 239.374 329.229C238.923 327.746 238.311 326.521 237.537 325.555C236.828 324.588 235.99 324.104 235.023 324.104ZM302.312 337.35C302.312 340.895 301.958 344.407 301.249 347.888C300.54 351.368 299.348 354.494 297.672 357.266C295.996 359.973 293.74 362.164 290.904 363.84C288.133 365.516 284.652 366.354 280.463 366.354C276.338 366.354 272.89 365.548 270.118 363.937C267.347 362.261 265.123 360.069 263.447 357.362C261.836 354.655 260.676 351.594 259.967 348.178C259.322 344.762 259 341.281 259 337.736C259 333.869 259.451 330.034 260.354 326.231C260.547 325.2 260.901 323.782 261.417 321.978C261.997 320.108 262.706 318.304 263.544 316.563C264.446 314.759 265.445 313.212 266.541 311.923C267.701 310.634 268.958 309.989 270.312 309.989C271.601 309.989 272.632 310.344 273.405 311.053C274.179 311.762 274.791 312.664 275.242 313.76C275.693 314.791 275.983 315.919 276.112 317.144C276.241 318.304 276.306 319.367 276.306 320.334C276.306 321.816 276.177 323.267 275.919 324.685C275.726 326.103 275.5 327.521 275.242 328.938C274.984 330.872 274.727 332.806 274.469 334.739C274.275 336.673 274.179 338.606 274.179 340.54C274.179 341.507 274.211 342.603 274.275 343.827C274.404 344.987 274.662 346.115 275.049 347.211C275.436 348.307 275.983 349.241 276.692 350.015C277.401 350.724 278.4 351.078 279.689 351.078C281.365 351.078 282.687 350.627 283.653 349.725C284.685 348.822 285.426 347.694 285.877 346.341C286.393 344.987 286.715 343.537 286.844 341.99C286.973 340.443 287.037 339.025 287.037 337.736C287.037 334.9 286.844 332.129 286.457 329.422C286.07 326.65 285.716 323.847 285.394 321.011C285.329 320.688 285.297 320.237 285.297 319.657C285.297 318.69 285.458 317.724 285.78 316.757C286.103 315.79 286.554 314.92 287.134 314.146C287.714 313.373 288.423 312.761 289.261 312.31C290.099 311.794 291.033 311.536 292.064 311.536C293.482 311.536 294.739 312.052 295.835 313.083C296.931 314.05 297.833 315.339 298.542 316.95C299.315 318.497 299.928 320.27 300.379 322.268C300.895 324.201 301.281 326.135 301.539 328.068C301.861 329.938 302.055 331.71 302.119 333.386C302.248 335.062 302.312 336.383 302.312 337.35ZM336.537 311.826C336.537 313.695 335.893 315.081 334.604 315.983C333.379 316.886 331.993 317.756 330.446 318.594C328.899 319.367 327.481 320.302 326.192 321.397C324.968 322.493 324.355 324.137 324.355 326.328C324.355 327.488 324.613 328.487 325.129 329.325C325.709 330.163 326.386 330.937 327.159 331.646C327.997 332.29 328.899 332.967 329.866 333.676C330.833 334.385 331.703 335.19 332.477 336.093C333.314 336.995 333.991 338.091 334.507 339.38C335.087 340.669 335.377 342.248 335.377 344.117C335.377 346.824 334.668 349.499 333.25 352.142C331.896 354.72 330.124 357.04 327.933 359.103C325.806 361.101 323.389 362.712 320.682 363.937C317.975 365.161 315.3 365.773 312.657 365.773C311.562 365.773 310.466 365.677 309.37 365.483C308.274 365.354 307.275 365.064 306.373 364.613C305.535 364.162 304.826 363.55 304.246 362.776C303.666 361.938 303.376 360.875 303.376 359.586C303.376 357.781 303.73 356.396 304.439 355.429C305.148 354.397 306.051 353.592 307.146 353.012C308.242 352.432 309.402 351.98 310.627 351.658C311.916 351.336 313.108 350.949 314.204 350.498C315.3 349.982 316.202 349.338 316.911 348.564C317.62 347.791 317.975 346.695 317.975 345.277C317.975 343.924 317.427 342.538 316.331 341.12C315.3 339.638 314.14 338.091 312.851 336.479C311.562 334.804 310.369 333.031 309.273 331.162C308.242 329.293 307.727 327.23 307.727 324.975C307.727 322.203 308.274 319.657 309.37 317.337C310.53 314.952 312.045 312.89 313.914 311.149C315.848 309.409 318.039 308.056 320.488 307.089C322.938 306.058 325.516 305.542 328.223 305.542C329.254 305.542 330.253 305.639 331.22 305.832C332.251 306.025 333.153 306.38 333.927 306.896C334.7 307.347 335.312 307.991 335.764 308.829C336.279 309.603 336.537 310.602 336.537 311.826ZM380.913 347.791C380.913 349.982 380.204 352.142 378.786 354.269C377.433 356.331 375.692 358.2 373.565 359.876C371.503 361.487 369.279 362.809 366.895 363.84C364.51 364.807 362.318 365.29 360.32 365.29C356.904 365.29 353.843 364.452 351.136 362.776C348.493 361.036 346.27 358.845 344.465 356.202C342.66 353.56 341.274 350.659 340.308 347.501C339.405 344.278 338.954 341.152 338.954 338.123C338.954 334.9 339.405 331.452 340.308 327.778C341.21 324.104 342.563 320.721 344.368 317.627C346.237 314.533 348.558 311.955 351.329 309.893C354.165 307.83 357.517 306.799 361.384 306.799C363.575 306.799 365.67 307.186 367.668 307.959C369.666 308.668 371.406 309.699 372.889 311.053C374.371 312.406 375.563 314.018 376.466 315.887C377.368 317.756 377.819 319.851 377.819 322.171C377.819 325.2 377.175 328.036 375.886 330.679C374.597 333.321 372.889 335.609 370.762 337.543C368.635 339.477 366.186 341.056 363.414 342.28C360.643 343.44 357.807 344.085 354.906 344.214C355.164 346.083 355.905 347.437 357.13 348.274C358.419 349.112 359.934 349.531 361.674 349.531C362.963 349.531 364.22 349.209 365.444 348.564C366.669 347.92 367.861 347.211 369.021 346.438C370.182 345.6 371.31 344.858 372.405 344.214C373.565 343.569 374.726 343.247 375.886 343.247C377.175 343.247 378.335 343.666 379.366 344.504C380.397 345.342 380.913 346.438 380.913 347.791ZM365.251 324.104C365.251 323.267 365.025 322.396 364.574 321.494C364.123 320.592 363.414 320.141 362.447 320.141C361.029 320.141 359.837 320.527 358.87 321.301C357.903 322.01 357.098 322.944 356.453 324.104C355.809 325.2 355.293 326.393 354.906 327.682C354.584 328.971 354.391 330.163 354.326 331.259C355.229 331.065 356.292 330.808 357.517 330.485C358.806 330.163 359.998 329.744 361.094 329.229C362.254 328.648 363.221 327.939 363.994 327.102C364.832 326.264 365.251 325.265 365.251 324.104Z" fill="#C00654"/>
</svg>
